<?xml version="1.0" encoding="UTF-8"?>
<svg version="1.1" xmlns="http://www.w3.org/2000/svg" width="2000" height="2000">
<path d="M0 0 C660 0 1320 0 2000 0 C2000 660 2000 1320 2000 2000 C1340 2000 680 2000 0 2000 C0 1340 0 680 0 0 Z " fill="#FEFEFE" transform="translate(0,0)"/>
<path d="M0 0 C4.07697964 0.80022893 8.16299064 1.54037837 12.25195312 2.27636719 C39.49680183 7.21010493 66.51507439 12.99974442 92.89160156 21.52197266 C95.65294603 22.41180531 98.41638094 23.29309545 101.18261719 24.16748047 C152.52237359 40.40586725 202.64190075 59.92360054 249.51757812 86.69042969 C250.55317871 87.28162598 251.5887793 87.87282227 252.65576172 88.48193359 C287.39636821 108.44084389 320.61205496 131.20170207 350.98193359 157.37695312 C352.5360824 158.70625687 354.10416263 160.01700844 355.67773438 161.32324219 C363.56126501 167.88123406 371.07779121 174.77392979 378.52783203 181.81835938 C380.60115638 183.76906504 382.68841701 185.70387361 384.77929688 187.63574219 C385.84120239 188.6204248 385.84120239 188.6204248 386.92456055 189.625 C388.27238009 190.87455905 389.62261949 192.12151558 390.97583008 193.36523438 C394.86930692 196.98899607 398.41627097 200.77974721 401.87890625 204.81591797 C404.14375566 207.40672753 406.55520071 209.78599056 409.01757812 212.19042969 C413.39992547 216.5244201 417.55514874 220.97067591 421.51757812 225.69042969 C419.90033661 229.77250314 416.97373011 232.49441032 413.89257812 235.50292969 C413.39628906 235.99857422 412.9 236.49421875 412.38867188 237.00488281 C409.66699822 239.69539227 406.87784158 242.25391741 403.96289062 244.73339844 C397.65286947 250.20323884 391.88517251 256.25599533 386.01757812 262.19042969 C372.76511475 275.59385684 372.76511475 275.59385684 366.57421875 280.85644531 C361.67077587 285.22903113 357.13197354 290.01621803 352.51757812 294.69042969 C346.70350397 300.57987147 340.92721056 306.42766482 334.62695312 311.80371094 C329.71083985 316.20090115 325.15013084 320.99782536 320.51757812 325.69042969 C308.83652191 337.522907 308.83652191 337.522907 302.53710938 342.89794922 C298.17263553 346.77173633 294.12296224 350.98375924 290.01757812 355.12792969 C289.09976562 356.05025391 288.18195313 356.97257812 287.23632812 357.92285156 C284.99442758 360.17642868 282.75491213 362.43232044 280.51757812 364.69042969 C277.16714415 363.23854375 275.01271617 361.40846379 272.47070312 358.80371094 C271.32601563 357.64258789 271.32601563 357.64258789 270.15820312 356.45800781 C269.36929687 355.64783203 268.58039063 354.83765625 267.76757812 354.00292969 C262.80137603 348.92498805 257.8214962 343.97642135 252.42919922 339.3503418 C249.26405231 336.60195945 246.24725751 333.69823948 243.20507812 330.81542969 C237.18137791 325.15662169 230.9810686 319.84387041 224.51757812 314.69042969 C223.3271486 313.71063282 222.13846029 312.72871801 220.95117188 311.74511719 C198.82517147 293.46346738 175.20629843 277.3079201 150.51757812 262.69042969 C149.74607422 262.22991211 148.97457031 261.76939453 148.1796875 261.29492188 C106.99873617 236.81121854 62.66278126 218.47422694 16.51757812 205.69042969 C15.01820108 205.25657193 13.51939951 204.82071442 12.02148438 204.38183594 C-22.02141386 194.54740945 -57.94487499 188.65319951 -93.25036621 185.87167358 C-94.91191673 185.73675495 -96.57288975 185.59468654 -98.23352051 185.44888306 C-114.89519202 183.98837668 -131.42231491 183.39962089 -148.14599609 183.48461914 C-151.87669688 183.50302478 -155.60714877 183.50512656 -159.33789062 183.50488281 C-180.27063908 183.53415202 -201.01689248 184.43605609 -221.85742188 186.37792969 C-223.22258438 186.50423264 -223.22258438 186.50423264 -224.61532593 186.63308716 C-251.82079798 189.18684906 -278.97648616 192.93869269 -305.48242188 199.69042969 C-306.7893006 200.00983238 -308.09657498 200.32762188 -309.40429688 200.64355469 C-311.95738032 201.26858342 -314.5039783 201.90516229 -317.04882812 202.56152344 C-320.40225473 203.42534374 -323.7659028 204.23666527 -327.13476562 205.03808594 C-396.16482047 221.79419982 -461.5909055 253.8786732 -519.48242188 294.69042969 C-520.67617432 295.52501709 -520.67617432 295.52501709 -521.89404297 296.37646484 C-532.55234159 303.84148139 -542.69090334 311.7882849 -552.64892578 320.16113281 C-555.10456428 322.20935113 -557.60762175 324.19649753 -560.10742188 326.19042969 C-566.50440457 331.41993892 -572.46329653 337.10916583 -578.46044922 342.78613281 C-580.54655524 344.75083059 -582.64715806 346.69890188 -584.75195312 348.64355469 C-585.45876221 349.29888184 -586.16557129 349.95420898 -586.89379883 350.62939453 C-588.2400347 351.87727886 -589.58865474 353.12259844 -590.94018555 354.36474609 C-594.86897042 358.02144037 -598.45226319 361.8494341 -601.94628906 365.92285156 C-603.65675036 367.89102382 -605.46634484 369.7085077 -607.35742188 371.50292969 C-611.23047511 375.32404542 -614.62076231 379.42870078 -618.02148438 383.67089844 C-619.71773457 385.7521705 -621.42339319 387.78829778 -623.19335938 389.80371094 C-631.86488706 399.67904376 -639.714708 410.09483842 -647.48242188 420.69042969 C-647.95421875 421.32980469 -648.42601562 421.96917969 -648.91210938 422.62792969 C-689.02567848 477.08513865 -718.52261695 539.57353878 -736.48242188 604.69042969 C-736.75924805 605.69154785 -737.03607422 606.69266602 -737.32128906 607.72412109 C-740.21251608 618.27587906 -742.8235169 628.87932802 -745.16992188 639.56542969 C-745.36030029 640.43135742 -745.55067871 641.29728516 -745.74682617 642.18945312 C-748.70098446 656.00558634 -750.92849848 669.9246249 -752.73510742 683.93261719 C-753.0386778 686.26740591 -753.35693989 688.59987223 -753.67578125 690.93261719 C-757.33667531 718.53704858 -757.88904116 746.25432493 -757.85998154 774.05571365 C-757.85738346 776.66653068 -757.85804482 779.27733508 -757.85879517 781.88815308 C-757.85041608 807.04616821 -757.0487645 831.75343836 -753.48242188 856.69042969 C-753.23492659 858.73000305 -752.99344437 860.77032093 -752.75976562 862.81152344 C-748.90744136 895.41498933 -741.6999129 928.06542341 -731.59179688 959.26416016 C-730.83481335 961.60207978 -730.085121 963.94236964 -729.34179688 966.28466797 C-717.5166889 1003.52883097 -702.03915318 1039.82096145 -682.48242188 1073.69042969 C-681.6384082 1075.15609375 -681.6384082 1075.15609375 -680.77734375 1076.65136719 C-664.62307098 1104.52679726 -646.30392935 1131.08319358 -625.48242188 1155.69042969 C-624.81895752 1156.47909424 -624.81895752 1156.47909424 -624.14208984 1157.28369141 C-622.65588659 1159.04814968 -621.16397792 1160.80761714 -619.66992188 1162.56542969 C-619.0139502 1163.34067993 -619.0139502 1163.34067993 -618.34472656 1164.1315918 C-609.11353871 1174.91055301 -599.24985777 1185.10966227 -589.21850586 1195.13964844 C-587.41229992 1196.94806095 -585.61429846 1198.76438108 -583.81640625 1200.58105469 C-577.76170021 1206.66429263 -571.6637412 1212.43019279 -564.90527344 1217.73510742 C-562.25000155 1219.87800066 -559.77581556 1222.16141206 -557.29492188 1224.50292969 C-551.03446196 1230.26326727 -544.24521812 1235.22570471 -537.39892578 1240.26171875 C-535.67943312 1241.5435622 -533.98721742 1242.85039374 -532.30664062 1244.18261719 C-522.45091377 1251.98027398 -512.01316952 1258.84525035 -501.48242188 1265.69042969 C-500.6693457 1266.21958984 -499.85626953 1266.74875 -499.01855469 1267.29394531 C-458.37765103 1293.62938474 -414.95337162 1314.21094416 -369.41992188 1330.50292969 C-368.77664948 1330.73408478 -368.13337708 1330.96523987 -367.47061157 1331.20339966 C-358.56189748 1334.39561395 -349.60419428 1337.17715813 -340.48242188 1339.69042969 C-338.52914338 1340.24848645 -336.57601217 1340.80705907 -334.62304688 1341.36621094 C-317.41250171 1346.18877032 -300.03353503 1349.89312796 -282.49798584 1353.29858398 C-281.14955315 1353.56073273 -279.80144952 1353.82457954 -278.45367432 1354.09008789 C-268.87782435 1355.97363503 -259.2980524 1357.50714878 -249.60742188 1358.69042969 C-248.93853943 1358.77314117 -248.26965698 1358.85585266 -247.58050537 1358.94107056 C-236.60810386 1360.29192311 -225.61938687 1361.40472293 -214.60742188 1362.37792969 C-213.92633362 1362.43859619 -213.24524536 1362.4992627 -212.54351807 1362.56176758 C-194.05516267 1364.19132953 -175.66877238 1364.89906545 -157.10742188 1364.87792969 C-156.03761078 1364.8769931 -154.96779968 1364.87605652 -153.86557007 1364.87509155 C-121.96275559 1364.8149942 -90.95367806 1362.55647861 -59.38879395 1357.96386719 C-56.8052875 1357.59330598 -54.2184292 1357.25006836 -51.63085938 1356.90917969 C-18.55882973 1352.44988269 15.15433741 1344.09883317 46.51757812 1332.69042969 C47.65259766 1332.27921875 48.78761719 1331.86800781 49.95703125 1331.44433594 C67.11323128 1325.18376267 83.91127784 1318.28578461 100.51757812 1310.69042969 C101.78819092 1310.11494385 101.78819092 1310.11494385 103.08447266 1309.52783203 C131.34951978 1296.6893504 158.27595119 1280.74282502 183.51757812 1262.69042969 C184.23848633 1262.17915527 184.95939453 1261.66788086 185.70214844 1261.14111328 C199.42545692 1251.4026513 212.66632564 1241.22793689 225.45117188 1230.28808594 C228.17528798 1227.96390227 230.96427805 1225.73119385 233.76757812 1223.50292969 C249.73092868 1210.45662305 264.02178925 1195.31768589 278.51757812 1180.69042969 C283.29170092 1184.72539783 287.95412445 1188.85626917 292.51757812 1193.12792969 C293.51724609 1194.06282227 293.51724609 1194.06282227 294.53710938 1195.01660156 C302.00656642 1202.06211645 309.23439176 1209.35045655 316.44726562 1216.65698242 C322.24222441 1222.51765526 322.24222441 1222.51765526 328.36132812 1228.03417969 C335.24392155 1233.92153048 341.45480616 1240.57568148 347.81787109 1247.01123047 C356.39898937 1255.68945377 356.39898937 1255.68945377 365.4609375 1263.85644531 C370.92199338 1268.72627577 375.96047964 1274.08722067 381.09960938 1279.29296875 C386.39977953 1284.6556099 391.69558762 1289.9377666 397.43554688 1294.83544922 C402.16439791 1299.04860707 406.55975666 1303.63157845 411.01757812 1308.12792969 C412.04077951 1309.15615949 413.06421545 1310.18415595 414.08789062 1311.21191406 C416.56715812 1313.70207307 419.0432535 1316.19535802 421.51757812 1318.69042969 C419.99154398 1321.9067311 418.41957041 1323.97812268 415.83007812 1326.44042969 C413.17940553 1328.96892699 410.72380844 1331.58297131 408.33789062 1334.35839844 C404.13170449 1339.20584358 399.62736848 1343.7273103 395.08007812 1348.25292969 C393.86868164 1349.47012695 393.86868164 1349.47012695 392.6328125 1350.71191406 C388.28599555 1355.05172566 383.8565263 1359.21779034 379.19946289 1363.22241211 C377.26373446 1364.91199478 375.47322566 1366.70204235 373.70507812 1368.56542969 C369.86079072 1372.46966699 365.70303884 1375.85218846 361.43164062 1379.27636719 C358.39782993 1381.78963127 355.51428755 1384.43425966 352.64257812 1387.12792969 C347.14936709 1392.24376483 341.3248707 1396.83577545 335.31738281 1401.33203125 C333.40446313 1402.77580297 331.51060366 1404.24211023 329.61914062 1405.71386719 C318.84046531 1414.08191066 307.76892873 1421.97200795 296.51757812 1429.69042969 C295.86611816 1430.1398291 295.2146582 1430.58922852 294.54345703 1431.05224609 C243.43112625 1466.22027396 186.85566054 1493.05740251 128.58520508 1513.94763184 C126.59823881 1514.66145222 124.6132908 1515.38060065 122.62890625 1516.1015625 C104.47120309 1522.67360257 86.22743439 1527.97827491 67.51757812 1532.69042969 C65.90283233 1533.10385819 64.28822452 1533.51782643 62.67382812 1533.93261719 C30.11041753 1542.29840307 -2.73509021 1549.20696646 -36.10028076 1553.38964844 C-38.58931198 1553.70392618 -41.07716058 1554.0265663 -43.56494141 1554.35058594 C-48.06624086 1554.93475041 -52.56973195 1555.49884049 -57.07510376 1556.0506897 C-58.77284167 1556.25976054 -60.47014227 1556.47243477 -62.1668396 1556.68978882 C-94.22514062 1560.7618005 -126.66742897 1561.03029969 -158.93481445 1560.95117188 C-163.6116583 1560.93977015 -168.2882746 1560.94658665 -172.96511078 1560.95804119 C-205.53087924 1561.02578877 -237.97647114 1560.04088605 -270.35742188 1556.37792969 C-271.33471252 1556.27060516 -272.31200317 1556.16328064 -273.31890869 1556.05270386 C-290.80683963 1554.13023927 -308.14785064 1551.70600602 -325.48242188 1548.69042969 C-326.83715197 1548.45960889 -328.19197175 1548.22931394 -329.546875 1547.99951172 C-349.38070234 1544.62509138 -368.95256831 1540.54018474 -388.48242188 1535.69042969 C-389.39121094 1535.46500488 -390.3 1535.23958008 -391.23632812 1535.00732422 C-396.67357899 1533.64482063 -402.08241245 1532.19322561 -407.48242188 1530.69042969 C-408.3217627 1530.45952637 -409.16110352 1530.22862305 -410.02587891 1529.99072266 C-473.94126265 1512.29663337 -536.50861782 1486.67694003 -593.82470703 1453.23486328 C-596.38127212 1451.74920916 -598.95120139 1450.28980664 -601.52539062 1448.83496094 C-626.09128599 1434.80201075 -649.89268644 1418.71166617 -672.48242188 1401.69042969 C-673.17706543 1401.17013184 -673.87170898 1400.64983398 -674.58740234 1400.11376953 C-692.68425462 1386.53197817 -710.330017 1372.27359119 -726.99414062 1356.95996094 C-729.16859853 1354.97666416 -731.37405405 1353.04413285 -733.60742188 1351.12792969 C-737.34830368 1347.8832873 -740.79905319 1344.38992605 -744.27539062 1340.86621094 C-746.22373286 1338.94545585 -748.21241396 1337.15000164 -750.29492188 1335.37792969 C-758.04365823 1328.71401642 -765.22087679 1321.32777877 -771.84179688 1313.54980469 C-773.64389977 1311.50742141 -775.54181135 1309.60141258 -777.48242188 1307.69042969 C-781.36267875 1303.85460324 -784.93749288 1299.83526975 -788.48242188 1295.69042969 C-789.38814381 1294.64830384 -790.2944399 1293.60667684 -791.20117188 1292.56542969 C-796.82828122 1286.0808385 -802.28843276 1279.50143348 -807.55444336 1272.7199707 C-810.24121376 1269.260168 -812.98396156 1265.86363501 -815.79492188 1262.50292969 C-822.37783552 1254.50433568 -828.40033425 1246.07177797 -834.48242188 1237.69042969 C-834.96952637 1237.01979492 -835.45663086 1236.34916016 -835.95849609 1235.65820312 C-846.06639967 1221.71052665 -855.3583365 1207.29369226 -864.48242188 1192.69042969 C-864.9402002 1191.96082031 -865.39797852 1191.23121094 -865.86962891 1190.47949219 C-874.21605797 1177.14961937 -881.90142893 1163.46717646 -889.48242188 1149.69042969 C-889.90765137 1148.92408203 -890.33288086 1148.15773438 -890.77099609 1147.36816406 C-915.61337423 1102.49297695 -936.29784822 1051.77467235 -948.66015625 1001.94238281 C-949.47433353 998.72241804 -950.32384757 995.51379317 -951.18231201 992.30543518 C-956.90460924 970.90602827 -961.79809241 949.47835538 -965.74951172 927.68212891 C-966.22920742 925.04328073 -966.7333821 922.41297352 -967.25048828 919.78076172 C-969.28444474 909.38052479 -970.72569433 898.96097407 -971.98242188 888.44042969 C-972.08880981 887.56168182 -972.19519775 886.68293396 -972.30480957 885.77755737 C-973.85077241 872.95527002 -975.17269716 860.12448777 -976.23242188 847.25292969 C-976.29131592 846.53995728 -976.35020996 845.82698486 -976.41088867 845.09240723 C-977.754553 828.60328832 -978.64115703 812.16907769 -978.61523438 795.62402344 C-978.61591207 794.05054204 -978.61688591 792.47706076 -978.61813354 790.90357971 C-978.61959174 787.63224271 -978.61751953 784.36093335 -978.61279297 781.08959961 C-978.6071291 776.97752773 -978.61047389 772.86552096 -978.61621284 768.75345135 C-978.64804914 742.22149097 -978.00072661 715.92336907 -975.35742188 689.50292969 C-975.19752274 687.88256302 -975.19752274 687.88256302 -975.03439331 686.22946167 C-971.765464 653.42977829 -967.10294633 620.77876979 -959.48242188 588.69042969 C-959.02895751 586.72987774 -958.57551355 584.769321 -958.1227417 582.80860901 C-937.61608033 494.29528317 -901.70270168 410.45589242 -819.48242188 290.69042969 C-818.46153437 289.36885695 -817.44069673 288.04724569 -816.41992188 286.72558594 C-811.14232922 279.9231922 -805.68038464 273.30264846 -800.08398438 266.76074219 C-797.73984486 264.01308924 -795.48358871 261.2024274 -793.23242188 258.37792969 C-787.66300577 251.54228754 -781.5673021 245.21021949 -775.49707031 238.82275391 C-773.49071844 236.69921086 -771.50364779 234.55920608 -769.52148438 232.41308594 C-761.67924675 223.94624531 -753.60457563 215.86367085 -745.10351562 208.05761719 C-741.98829796 205.19240422 -738.99600418 202.22244187 -736.01635742 199.21728516 C-734.2959538 197.50482228 -732.51633671 195.89092586 -730.66992188 194.31542969 C-727.62659099 191.69348308 -724.63889914 189.02133302 -721.66992188 186.31542969 C-716.9391103 182.05123838 -712.06331368 178.00196487 -707.10595703 174.00488281 C-705.28113067 172.52745948 -703.46548884 171.039162 -701.65039062 169.54980469 C-693.73553784 163.06502622 -685.75204106 156.72065687 -677.48242188 150.69042969 C-676.82016602 150.20606445 -676.15791016 149.72169922 -675.47558594 149.22265625 C-644.4356094 126.55301046 -612.13724443 106.27463784 -578.48242188 87.69042969 C-577.42249023 87.10293945 -576.36255859 86.51544922 -575.27050781 85.91015625 C-527.39601037 59.47871225 -475.37170772 36.4938122 -422.35742188 22.62792969 C-416.57583585 21.1035381 -410.83758502 19.5086819 -405.13085938 17.72167969 C-398.54914998 15.6769568 -391.91988605 13.91561424 -385.23242188 12.25292969 C-384.02223389 11.9514502 -382.8120459 11.6499707 -381.56518555 11.33935547 C-370.61916386 8.65336411 -359.61422134 6.40230587 -348.54589844 4.28759766 C-345.47449601 3.68888469 -342.41191097 3.0566272 -339.34960938 2.41308594 C-324.89406911 -0.60826046 -310.41382134 -2.91878003 -295.77636719 -4.86865234 C-292.75722353 -5.27278616 -289.74079508 -5.69261571 -286.72460938 -6.11816406 C-271.05289048 -8.2952548 -255.32189261 -9.86336632 -239.55395508 -11.14099121 C-237.57862246 -11.30174161 -235.60374943 -11.46811008 -233.62890625 -11.63476562 C-156.80634364 -17.8237956 -75.56504686 -15.16347783 0 0 Z " fill="#000000" transform="translate(1133.482421875,244.3095703125)"/>
<path d="M0 0 C40.26 0 80.52 0 122 0 C122 4.62 122 9.24 122 14 C120.94941406 14.03738281 119.89882813 14.07476563 118.81640625 14.11328125 C105.83807874 14.17844906 105.83807874 14.17844906 94.9375 20.125 C91.82674909 29.66463613 95.79793824 38.50762811 98.9375 47.5 C99.47463225 49.07051293 100.01065054 50.6414072 100.5456543 52.21264648 C102.02689832 56.5491785 103.52669988 60.87908169 105.03088379 65.20770264 C106.02239914 68.06453826 107.00943002 70.92288685 107.99511719 73.78173828 C112.6130096 87.17471498 117.26371964 100.55610124 121.92993164 113.93231201 C122.98562571 116.95879156 124.0407617 119.98546506 125.09570312 123.01220703 C128.30370034 132.21596902 131.51376647 141.41900582 134.7265625 150.62109375 C138.49363514 161.41084592 142.24881167 172.20471581 146 183 C151.98326223 167.93588422 157.53145247 152.71612499 163.0683136 137.48390579 C165.09880871 131.90033568 167.13445628 126.31863959 169.16901016 120.73654747 C169.94118939 118.61778254 170.71314498 116.49893622 171.4850769 114.38008118 C176.38490704 100.93287294 181.31260768 87.49596275 186.25 74.0625 C186.62758453 73.03470428 187.00516907 72.00690857 187.39419556 70.94796753 C188.45512614 68.0602242 189.51650153 65.17264491 190.578125 62.28515625 C190.88334579 61.45464752 191.18856659 60.62413879 191.5030365 59.76846313 C191.93320824 58.59928848 191.93320824 58.59928848 192.37207031 57.40649414 C192.64214905 56.66924103 192.91222778 55.93198792 193.19049072 55.1723938 C193.74077372 53.69565795 194.30560074 52.22427757 194.88323975 50.75802612 C197.18891179 44.87163015 197.16179892 41.82361257 194.765625 36 C188.77574302 24.08226808 188.77574302 24.08226808 177.7421875 17.19140625 C172.48883323 15.51258203 167.47044859 14.59677621 162 14 C161.67 13.67 161.34 13.34 161 13 C161 8.71 161 4.42 161 0 C198.62 0 236.24 0 275 0 C275 4.62 275 9.24 275 14 C273.02 14.103125 271.04 14.20625 269 14.3125 C262.48671378 14.82279011 257.12310787 15.58337614 251.82421875 19.68359375 C248.31220076 24.14317976 249.23095562 29.99091966 249.66894531 35.40576172 C251.20071974 47.40917988 254.88193417 59.27572346 259.10302734 70.57739258 C260.15498457 73.41859333 261.06885029 76.2853293 261.9375 79.1875 C263.41493566 84.06996317 264.91218802 88.94484742 266.4375 93.8125 C266.86329235 95.17317361 267.28907353 96.53385072 267.71484375 97.89453125 C268.03364502 98.91281006 268.03364502 98.91281006 268.35888672 99.95166016 C269.40711876 103.30073358 270.45347821 106.65039185 271.5 110 C271.9166574 111.33333623 272.33332407 112.66666956 272.75 114 C279.83333333 136.66666667 286.91666667 159.33333333 294 182 C296.98174508 175.59728214 299.45794057 169.117709 301.73046875 162.43359375 C302.07821854 161.42237961 302.42596832 160.41116547 302.78425598 159.36930847 C303.53222913 157.19357354 304.27849087 155.01724964 305.02319336 152.84039307 C307.02106123 147.00126918 309.03183261 141.16659614 311.04296875 135.33203125 C311.45433075 134.13801697 311.86569275 132.94400269 312.28952026 131.71380615 C316.1010276 120.66924897 320.00195973 109.65737776 323.92227173 98.65106201 C329.05463204 84.24034182 334.15677864 69.82337415 339 55.3125 C339.40347656 54.1073877 339.80695313 52.90227539 340.22265625 51.66064453 C342.61630379 44.41857382 344.15787433 38.17713955 344.25 30.5 C344.27578125 29.2109375 344.3015625 27.921875 344.328125 26.59375 C343.97760662 22.75473912 343.43578187 20.95697537 341 18 C333.68319362 13.66600319 325.28673559 13.35641874 317 13 C317 8.71 317 4.42 317 0 C347.03 0 377.06 0 408 0 C408 4.29 408 8.58 408 13 C406.2675 13.20625 404.535 13.4125 402.75 13.625 C393.36824618 15.22000891 384.53031264 18.83643649 378.63336182 26.58500671 C373.14612917 34.69810809 369.69580428 43.95477285 366.453125 53.13671875 C366.04480438 54.27290649 365.63648376 55.40909424 365.21578979 56.57971191 C364.11609838 59.64275064 363.02275701 62.70796506 361.93192291 65.77416611 C360.77162192 69.02972941 359.60228149 72.28203941 358.43310547 75.53442383 C357.95675452 76.85972521 357.48040565 78.18502733 357.00405884 79.5103302 C356.76764301 80.16802713 356.53122719 80.82572407 356.28764725 81.50335121 C355.56901135 83.50362165 354.85132481 85.50423044 354.13388062 87.50492859 C349.85905654 99.42184595 345.50450222 111.30869961 341.125 123.1875 C339.66336005 127.15599161 338.20255817 131.12479113 336.7421875 135.09375 C336.36987 136.10554321 335.99755249 137.11733643 335.61395264 138.15979004 C330.97029783 150.7878092 326.3626533 163.42898624 321.75219727 176.06915283 C308.01569863 213.72948224 308.01569863 213.72948224 301.52770996 231.35952759 C300.93203423 232.97818274 300.33673008 234.59697468 299.74182129 236.21591187 C298.94631804 238.38008116 298.14925693 240.54366881 297.3515625 242.70703125 C296.91666504 243.8875708 296.48176758 245.06811035 296.03369141 246.28442383 C295 249 295 249 294 251 C284.43 251 274.86 251 265 251 C264.16557373 248.43033447 263.33114746 245.86066895 262.47143555 243.21313477 C256.17211256 223.82587045 249.84535099 204.44797937 243.45703125 185.08984375 C243.14384823 184.14074757 242.83066521 183.19165138 242.50799179 182.21379471 C239.95549311 174.47949217 237.40100252 166.74584788 234.84613037 159.0123291 C232.61113162 152.24687417 230.37704197 145.48112014 228.14453125 138.71484375 C227.8385413 137.78748791 227.53255135 136.86013206 227.21728897 135.90467453 C221.40812365 118.29235018 215.67985647 100.65441825 210 83 C208.11915891 85.82126163 207.07785695 88.1884504 205.90649414 91.34838867 C205.49226196 92.4598526 205.07802979 93.57131653 204.65124512 94.71646118 C204.20043579 95.93795868 203.74962646 97.15945618 203.28515625 98.41796875 C202.80175329 99.71899634 202.31797912 101.01988606 201.8338623 102.32064819 C200.7892016 105.12956829 199.746875 107.93933931 198.70632935 110.74978638 C197.04844961 115.2272063 195.38508124 119.70257333 193.72045898 124.17749023 C193.4380967 124.93659856 193.15573442 125.69570688 192.86481571 126.47781849 C192.28641998 128.03278562 191.70801163 129.58774805 191.12959099 131.14270592 C190.24094431 133.53216209 189.35278485 135.92179889 188.46473694 138.31147766 C182.43899691 154.52397174 176.37678333 170.72273777 170.30392456 186.91763306 C169.15811942 189.97333138 168.01302975 193.02929605 166.86868286 196.08554077 C160.00146615 214.42571277 153.05738375 232.73190656 146 251 C137.09 251 128.18 251 119 251 C115.14453125 240.3515625 115.14453125 240.3515625 113.80639648 236.65562439 C111.76014501 231.0038913 109.71376362 225.35220537 107.66691017 219.70069027 C106.44062564 216.31481021 105.21443103 212.9288976 103.98828125 209.54296875 C103.7393877 208.85566996 103.49049416 208.16837116 103.23405838 207.46024513 C99.70743496 197.72124577 96.18598171 187.98039472 92.66796875 178.23828125 C82.90370031 151.20801793 73.06222248 124.20817715 63.1015625 97.24975586 C62.69025085 96.13638351 62.27893921 95.02301117 61.85516357 93.87590027 C61.05164855 91.701151 60.24782255 89.5265166 59.44366455 87.352005 C57.5336691 82.18112379 55.63611859 77.0062494 53.76464844 71.82128906 C53.40796585 70.83392761 53.05128326 69.84656616 52.68379211 68.82928467 C52.02458978 67.00110675 51.36761879 65.17212172 50.71354675 63.34210205 C41.43073227 36.75606297 41.43073227 36.75606297 22.3125 17.32421875 C15.24321233 14.49817097 7.51798446 13.87992837 0 13 C0 8.71 0 4.42 0 0 Z " fill="#0197B2" transform="translate(483,673)"/>
<path d="M0 0 C1.48693359 0.0012085 1.48693359 0.0012085 3.00390625 0.00244141 C10.50327615 0.06534731 17.87973023 0.27303651 24.88330078 3.21484375 C29.80091719 4.56061815 34.44923618 4.43421599 39.5234375 4.3828125 C40.58035797 4.3799826 41.63727844 4.37715271 42.72622681 4.37423706 C46.08843501 4.3630785 49.45037286 4.33798159 52.8125 4.3125 C55.09765239 4.30246462 57.38280898 4.29333975 59.66796875 4.28515625 C65.25791602 4.26315327 70.84766223 4.22865296 76.4375 4.1875 C76.4375 9.1375 76.4375 14.0875 76.4375 19.1875 C73.7722536 19.69631977 71.10571581 20.19470141 68.4375 20.6875 C67.69371094 20.83058594 66.94992187 20.97367188 66.18359375 21.12109375 C61.18529985 22.03382568 56.51829684 22.32606719 51.4375 22.1875 C51.78683594 22.93515625 52.13617187 23.6828125 52.49609375 24.453125 C52.95113281 25.43796875 53.40617187 26.4228125 53.875 27.4375 C54.32746094 28.41203125 54.77992187 29.3865625 55.24609375 30.390625 C57.86561802 36.54006559 57.62103888 42.33034902 57.625 48.9375 C57.63724609 49.99710938 57.64949219 51.05671875 57.66210938 52.1484375 C57.68816658 66.1498441 53.45453259 77.41414358 43.98828125 87.7734375 C30.31584329 100.79152704 11.2813105 102.75398963 -6.6953125 102.48828125 C-11.91745586 102.08211454 -16.58780064 100.84573312 -21.5625 99.1875 C-21.55089844 100.22648437 -21.53929687 101.26546875 -21.52734375 102.3359375 C-21.5179514 103.74478984 -21.50885277 105.15364416 -21.5 106.5625 C-21.49162109 107.24183594 -21.48324219 107.92117188 -21.47460938 108.62109375 C-21.4559882 112.6060253 -21.65373479 116.50234601 -22.06860352 120.46728516 C-22.20650047 121.79888168 -22.20650047 121.79888168 -22.34718323 123.15737915 C-22.45376503 124.16228897 -22.45376503 124.16228897 -22.5625 125.1875 C-21.88170883 125.17861755 -21.20091766 125.16973511 -20.49949646 125.1605835 C-13.34423309 125.07134336 -6.18913055 125.01145093 0.96655273 124.96777344 C3.62898591 124.95007216 6.29053133 124.92060218 8.95288086 124.88574219 C48.99875375 124.37493383 48.99875375 124.37493383 63.25 137.375 C68.61083383 143.19207501 72.03448926 150.26162212 72.4375 158.1875 C72.48777344 159.15558594 72.53804687 160.12367188 72.58984375 161.12109375 C72.91614608 172.20232102 70.98869556 181.1692403 64.4375 190.1875 C63.880625 191.033125 63.32375 191.87875 62.75 192.75 C51.29357491 204.82569131 33.82216625 210.68065559 17.50024414 211.34863281 C16.07445158 211.36852599 14.64856295 211.38224345 13.22265625 211.390625 C12.449254 211.39632507 11.67585175 211.40202515 10.87901306 211.40789795 C9.24609725 211.41729862 7.61316289 211.42386218 5.98022461 211.42773438 C3.53789013 211.43735081 1.09643131 211.46838341 -1.34570312 211.5 C-18.3048383 211.61398048 -37.50377809 210.19710683 -50.5625 198.1875 C-57.12042264 191.70874745 -60.86972973 185.69874097 -61.13305664 176.37426758 C-61.09852302 165.9294172 -59.82577541 158.90191331 -52.51171875 150.9609375 C-47.42825618 146.13932291 -41.67848713 142.55831545 -35.5625 139.1875 C-37.1403125 138.5996875 -37.1403125 138.5996875 -38.75 138 C-43.06745738 136.16092079 -46.43050323 133.45149355 -48.5625 129.1875 C-50.49959231 118.76314755 -45.47074373 110.92525258 -40.5625 102.1875 C-40.01980469 101.18976563 -39.47710938 100.19203125 -38.91796875 99.1640625 C-37.82039297 97.1586935 -36.70611823 95.16683925 -35.5625 93.1875 C-36.14128906 92.9296875 -36.72007813 92.671875 -37.31640625 92.40625 C-45.0069237 88.23330836 -49.27074011 81.00861943 -52.5625 73.1875 C-52.91570312 72.38699219 -53.26890625 71.58648438 -53.6328125 70.76171875 C-58.35201191 57.69469181 -56.6400325 39.55628006 -51.0625 27.125 C-44.47926428 14.80540112 -33.8210982 6.9985096 -20.6875 2.875 C-18.65115282 2.29353701 -16.60996923 1.72849797 -14.5625 1.1875 C-13.94238037 1.01025391 -13.32226074 0.83300781 -12.68334961 0.65039062 C-8.52507112 -0.25718345 -4.23893014 -0.0035137 0 0 Z " fill="#020202" transform="translate(1223.5625,1052.8125)"/>
<path d="M0 0 C16.5 0 33 0 50 0 C50 60.72 50 121.44 50 184 C53.63 184.66 57.26 185.32 61 186 C63.041875 186.556875 63.041875 186.556875 65.125 187.125 C73.49119459 189.01414071 79.46300121 187.8297007 87.49609375 184.875 C90 184 90 184 92 184 C92 129.88 92 75.76 92 20 C89.03 19.67 86.06 19.34 83 19 C78.63273277 18.11554819 74.33252377 17.04892681 70 16 C70 10.72 70 5.44 70 0 C86.5 0 103 0 120 0 C120.33 60.72 120.66 121.44 121 184 C139.28012286 189.3589769 139.28012286 189.3589769 155.6875 186.5 C162.6402027 184 162.6402027 184 166 184 C166 151.33 166 118.66 166 85 C161.05 84.01 156.1 83.02 151 82 C148.32747035 81.3572397 145.6568236 80.70487157 143 80 C143 75.05 143 70.1 143 65 C147.0414929 64.82775982 151.08310062 64.66220204 155.125 64.5 C156.78015625 64.42845703 156.78015625 64.42845703 158.46875 64.35546875 C169.67083693 63.91493724 180.75588131 64 192 64 C192.33 103.6 192.66 143.2 193 184 C199.27 185.98 205.54 187.96 212 190 C215.77859468 193.77859468 213 200.65626015 213 206 C142.71 206 72.42 206 0 206 C0 201.05 0 196.1 0 191 C7 188 7 188 23 184 C23 130.21 23 76.42 23 21 C11.51723557 18.41834817 11.51723557 18.41834817 0 16 C0 10.72 0 5.44 0 0 Z " fill="#040404" transform="translate(944,992)"/>
<path d="M0 0 C8.51798155 8.32869307 13.72488398 19.91408298 13.95053101 31.87709045 C13.96198489 33.5340005 13.96818654 35.190952 13.97021484 36.84790039 C13.97529556 37.75594421 13.98037628 38.66398804 13.98561096 39.59954834 C13.99629398 41.56818243 14.00492223 43.53682851 14.01173019 45.50547981 C14.02356109 48.63029847 14.043027 51.75498152 14.06484985 54.87974548 C14.12630881 63.76345241 14.18038165 72.64714592 14.21386719 81.53100586 C14.23491828 86.97042529 14.27030773 92.40959764 14.31462479 97.84887505 C14.32870574 99.91270459 14.33748919 101.97657785 14.34067917 104.04045296 C14.11929898 121.56958063 14.11929898 121.56958063 19.5625 138 C21.77554734 140.01422539 21.77554734 140.01422539 25.0625 140.25 C29.41544484 139.66960736 32.77295929 138.45085925 36.8125 136.75 C40.79176267 142.89976959 40.79176267 142.89976959 40.875 146.3125 C37.05367881 155.07906038 29.08187672 158.58025665 20.625 162.0625 C17.0287777 162.94157656 13.49684367 163.47637862 9.8125 163.75 C8.95269531 163.81574219 8.09289062 163.88148438 7.20703125 163.94921875 C-1.20676783 164.29336568 -9.40279233 162.34004688 -15.80859375 156.5 C-21.19893852 149.65899587 -24.3796586 141.624626 -24.25 132.9375 C-24.24097656 132.14730469 -24.23195313 131.35710937 -24.22265625 130.54296875 C-24.21105469 129.95128906 -24.19945312 129.35960937 -24.1875 128.75 C-26.86981841 131.23362815 -28.84829509 134.00825857 -30.9375 137 C-39.58681305 148.93008696 -49.91844035 156.56805174 -64.1875 160.75 C-64.92871094 160.97558594 -65.66992188 161.20117188 -66.43359375 161.43359375 C-80.44314845 164.95419242 -96.71247175 164.08236083 -109.375 157.0625 C-119.00695461 150.78875461 -125.46925864 143.19551934 -128.1875 131.75 C-129.49469904 122.77878662 -129.30936138 113.50414928 -124.1875 105.75 C-123.51654297 104.72712891 -123.51654297 104.72712891 -122.83203125 103.68359375 C-121.36930418 101.61695255 -119.82409281 99.68125915 -118.1875 97.75 C-117.70925781 97.17636719 -117.23101563 96.60273437 -116.73828125 96.01171875 C-100.82630408 78.57668079 -74.15659247 70.56310571 -53.00189209 61.52575684 C-50.19385405 60.32515928 -47.38799488 59.11949864 -44.58203125 57.9140625 C-39.78591069 55.85454035 -34.9875478 53.80035154 -30.1875 51.75 C-30.12881782 47.7708966 -30.0936761 43.79190647 -30.0625 39.8125 C-30.03736328 38.13704102 -30.03736328 38.13704102 -30.01171875 36.42773438 C-29.95307086 26.42826899 -30.6275013 17.69769074 -37.1875 9.75 C-44.82180176 3.70617777 -51.68920001 3.02207095 -61.1875 3.75 C-67.24984647 4.93869539 -70.72335224 8.92475261 -74.1875 13.75 C-75.71335738 16.67104099 -76.91722678 19.68625528 -78.125 22.75 C-81.4350163 30.61079225 -84.29686652 36.54442019 -92.375 40.1875 C-106.34767274 42.24904188 -106.34767274 42.24904188 -112.6875 38.8125 C-116.96663688 35.61206221 -118.97545478 31.90876749 -120.1875 26.75 C-121.25820448 17.63785875 -120.28368385 11.26363163 -114.85546875 3.95703125 C-90.88079753 -23.53797144 -27.3108394 -19.27823957 0 0 Z " fill="#0297B2" transform="translate(982.1875,760.25)"/>
<path d="M0 0 C0.92167969 0.2784375 1.84335938 0.556875 2.79296875 0.84375 C18.80555061 6.08341007 31.25126744 15.7615324 39.25 30.625 C45.4461038 43.91445761 47.29041456 57.44532411 46 72 C43.54567793 74.45432207 42.88034603 74.2558366 39.50753784 74.2784729 C38.56240326 74.28963638 37.61726868 74.30079987 36.64349365 74.31230164 C35.60340149 74.31446182 34.56330933 74.31662201 33.49169922 74.31884766 C31.85266129 74.33391609 31.85266129 74.33391609 30.18051147 74.34928894 C26.55524236 74.38027238 22.93004758 74.39719819 19.3046875 74.4140625 C16.79647169 74.43276195 14.28826226 74.45233442 11.78005981 74.4727478 C5.84444292 74.51893989 -0.0911883 74.55630164 -6.02688873 74.58942068 C-13.44637865 74.63135691 -20.86575557 74.68694007 -28.28515625 74.7421875 C-41.52337615 74.83910665 -54.76164525 74.92383935 -68 75 C-68.03674549 78.48564871 -68.05866299 81.97124657 -68.078125 85.45703125 C-68.08859863 86.43353638 -68.09907227 87.4100415 -68.10986328 88.4161377 C-68.19147489 107.95803739 -62.82518511 126.35627997 -49.328125 140.76953125 C-39.67112738 150.02145347 -27.87864076 152.42003153 -14.83984375 152.26953125 C1.80384303 151.10125619 16.88723896 143.15468511 29.546875 132.6875 C32 131 32 131 36 131 C37.921875 132.75 37.921875 132.75 39.75 135 C40.36359375 135.7425 40.9771875 136.485 41.609375 137.25 C42.06828125 137.8275 42.5271875 138.405 43 139 C36.75862385 153.04309634 20.36886106 161.13216975 7 167 C6.06800781 167.42023438 5.13601563 167.84046875 4.17578125 168.2734375 C-18.51208747 177.51535646 -45.12246548 176.04857981 -67.609375 167.2734375 C-87.39168636 158.91254514 -102.95238607 143.97935276 -111.25 124 C-111.85756805 122.34201429 -112.43934225 120.67443078 -113 119 C-113.35964844 117.93523437 -113.71929688 116.87046875 -114.08984375 115.7734375 C-121.47350221 92.91300028 -119.64663622 66.39451108 -109.046875 44.75390625 C-98.04693252 23.84425227 -79.46130161 8.30628483 -56.875 1.1875 C-55.25352362 0.77747149 -53.62825586 0.38221969 -52 0 C-51.06285156 -0.27585937 -50.12570312 -0.55171875 -49.16015625 -0.8359375 C-33.73198306 -4.91271539 -15.19285153 -5.10092844 0 0 Z " fill="#0297B2" transform="translate(1248,750)"/>
<path d="M0 0 C0.08564209 0.6297876 0.17128418 1.2595752 0.25952148 1.90844727 C0.65194051 4.79316428 1.04471753 7.67783245 1.4375 10.5625 C1.57220703 11.55314453 1.70691406 12.54378906 1.84570312 13.56445312 C1.97783203 14.53447266 2.10996094 15.50449219 2.24609375 16.50390625 C2.37491943 17.45209229 2.50374512 18.40027832 2.63647461 19.37719727 C2.93987412 21.56619721 3.26423257 23.75227912 3.59375 25.9375 C4.09108484 29.68663959 4.06624906 33.22380354 4 37 C6.79485312 34.47864933 8.57545192 31.61926593 10.5625 28.4375 C20.0597889 14.08758174 33.1075849 4.02200359 50 0 C61.16844878 -1.17151561 71.04403165 -0.12406573 80 7 C85.23475958 12.39080932 86.35337058 16.65431575 86.28515625 24.01171875 C85.6416969 30.75482019 82.80757628 37.19242372 78 42 C72.10688373 46.12518139 66.06725897 46.89356148 59 46 C52.85322885 43.85233297 47.65842706 40.2612084 42.59375 36.234375 C39.36676591 33.73504418 37.04278986 33.61127021 33 34 C26.07050045 36.94872321 23.09680469 43.43651466 20 50 C13.15392999 67.21131512 10.87277592 85.50880918 10.796875 103.9140625 C10.79117493 105.00915131 10.78547485 106.10424011 10.77960205 107.23251343 C10.7702228 109.52999932 10.76364654 111.82749824 10.75976562 114.125 C10.7500066 117.62263297 10.71889408 121.11969055 10.6875 124.6171875 C10.68097323 126.86197572 10.67572148 129.10676809 10.671875 131.3515625 C10.6533548 132.90346786 10.6533548 132.90346786 10.63446045 134.48672485 C10.65399815 140.89843586 11.61828885 146.05766691 14 152 C14.33 152.99 14.66 153.98 15 155 C21.16320463 158.88053625 27.8025806 159.36937038 34.875 159.625 C36.19371094 159.68300781 36.19371094 159.68300781 37.5390625 159.7421875 C39.69238793 159.83581034 41.84616414 159.91896459 44 160 C44 164.62 44 169.24 44 174 C8.36 174 -27.28 174 -64 174 C-64 169.38 -64 164.76 -64 160 C-62.92621094 159.89042969 -61.85242187 159.78085937 -60.74609375 159.66796875 C-59.3098322 159.50838413 -57.87363767 159.34819558 -56.4375 159.1875 C-55.38079102 159.08211914 -55.38079102 159.08211914 -54.30273438 158.97460938 C-48.93523241 158.35623357 -43.18781964 157.53001707 -39.4765625 153.23828125 C-39.19554687 152.60277344 -38.91453125 151.96726562 -38.625 151.3125 C-38.32851562 150.68988281 -38.03203125 150.06726563 -37.7265625 149.42578125 C-35.92047756 143.39578797 -35.85076316 137.06815012 -35.85473633 130.81835938 C-35.85137772 130.04309906 -35.8480191 129.26783875 -35.84455872 128.46908569 C-35.83512684 125.92729042 -35.83310907 123.38556165 -35.83203125 120.84375 C-35.82881165 119.05505345 -35.82544707 117.26635715 -35.82194519 115.47766113 C-35.81597209 111.73217154 -35.81410325 107.98670495 -35.81469727 104.24121094 C-35.81479841 99.4854191 -35.80118797 94.72977817 -35.78392506 89.97402191 C-35.77269894 86.27782541 -35.77078133 82.58166406 -35.77130699 78.88545227 C-35.77014118 77.13470442 -35.76579993 75.38395523 -35.75797462 73.63322449 C-34.82050917 49.42387135 -34.82050917 49.42387135 -44.4375 28.5 C-49.24739393 25.68445233 -53.24057631 24.71269235 -58.8125 24.375 C-59.97394531 24.30023437 -61.13539062 24.22546875 -62.33203125 24.1484375 C-63.21246094 24.09945312 -64.09289063 24.05046875 -65 24 C-65 20.04 -65 16.08 -65 12 C-57.03235253 9.93796409 -49.09778471 8.17565293 -40.99609375 6.73828125 C-39.91038589 6.54276169 -38.82467804 6.34724213 -37.70606995 6.14579773 C-35.43680256 5.73806614 -33.16717986 5.33230737 -30.8972168 4.9284668 C-27.4142599 4.30836234 -23.93266471 3.68100124 -20.45117188 3.05273438 C-18.23705536 2.65582472 -16.02286525 2.25932535 -13.80859375 1.86328125 C-12.76803329 1.6758284 -11.72747284 1.48837555 -10.65538025 1.29524231 C-9.69330154 1.12473862 -8.73122284 0.95423492 -7.73999023 0.77856445 C-6.8946019 0.62772903 -6.04921356 0.47689362 -5.1782074 0.32148743 C-3 0 -3 0 0 0 Z " fill="#0398B2" transform="translate(1363,747)"/>
<path d="M0 0 C0 20.13 0 40.26 0 61 C4.29 58.36 8.58 55.72 13 53 C19.57221764 50.22092215 24.97609762 49.5519529 32.0625 49.6875 C32.90876953 49.68427734 33.75503906 49.68105469 34.62695312 49.67773438 C45.43904433 49.76943291 55.15275821 52.76879747 63.26953125 60.10546875 C78.2760011 76.53467389 77.93921554 97.03377002 77 118 C75.92241673 131.77925067 69.42437959 145.81923061 59 155 C46.29567511 164.57593258 32.94814899 168.41517079 17.1875 168.1875 C16.22191162 168.1781543 15.25632324 168.16880859 14.26147461 168.15917969 C11.50698421 168.12312796 8.75389253 168.06702651 6 168 C4.74960938 167.97035156 3.49921875 167.94070313 2.2109375 167.91015625 C-6.52898819 167.46556946 -13.14856859 165.36038171 -22 163 C-22 114.82 -22 66.64 -22 17 C-26.95 16.01 -31.9 15.02 -37 14 C-37.66 13.67 -38.32 13.34 -39 13 C-39 9.04 -39 5.08 -39 1 C-26.04913306 -0.17735154 -13.0042728 0 0 0 Z " fill="#0398B3" transform="translate(1756,1297)"/>
<path d="M0 0 C1.26557178 1.0439034 2.51617504 2.10625894 3.75 3.1875 C4.34425781 3.66574219 4.93851563 4.14398437 5.55078125 4.63671875 C15.95352118 13.7938978 20.15268234 28.90979699 21.75 42.1875 C21.83965319 44.60286254 21.8801426 47.02047964 21.875 49.4375 C21.87886719 51.23960938 21.87886719 51.23960938 21.8828125 53.078125 C21.82406759 56.38516392 21.55048694 59.65162236 21.24169922 62.94433594 C21.15008514 63.92819275 21.05847107 64.91204956 20.96408081 65.92572021 C20.89343414 66.67210754 20.82278748 67.41849487 20.75 68.1875 C-10.25309972 68.84591858 -41.23933114 69.36821485 -72.25 69.1875 C-71.80636158 72.22665865 -71.35320637 75.26388672 -70.89453125 78.30078125 C-70.70896667 79.58233093 -70.70896667 79.58233093 -70.51965332 80.88977051 C-68.88518572 91.58974185 -64.6917442 101.82952751 -56.18359375 108.90625 C-46.03261231 116.10903335 -35.4966252 117.81464649 -23.20214844 115.86230469 C-10.69980481 113.418908 0.81605492 108.67607852 11.75 102.1875 C13.07018588 103.93170913 14.38088602 105.68310091 15.6875 107.4375 C16.41839844 108.41203125 17.14929687 109.3865625 17.90234375 110.390625 C19.50345079 112.8142881 20.32636238 114.3632492 20.75 117.1875 C-0.91928489 132.78427143 -23.79287283 141.71874296 -50.89794922 137.80517578 C-66.11237079 134.79833748 -78.69049182 127.502182 -87.96484375 114.84765625 C-100.43276633 95.27333505 -103.2134175 69.74785389 -99.0625 47.1875 C-94.57318572 28.1751506 -85.31871922 11.37914615 -68.8125 0.375 C-49.21504291 -11.41622767 -19.40202834 -13.99184736 0 0 Z " fill="#030303" transform="translate(1812.25,1061.8125)"/>
<path d="M0 0 C11.43002216 9.30758193 17.17737352 23.06742566 18.98046875 37.4921875 C19.34871449 42.1741691 19.39222033 46.86039636 19.41796875 51.5546875 C19.42272217 52.2677002 19.42747559 52.98071289 19.43237305 53.71533203 C19.43019775 54.40868652 19.42802246 55.10204102 19.42578125 55.81640625 C19.42465332 56.42830811 19.42352539 57.04020996 19.42236328 57.6706543 C19.24073677 60.75384999 18.72975437 63.80968816 18.29296875 66.8671875 C-12.39703125 66.8671875 -43.08703125 66.8671875 -74.70703125 66.8671875 C-71.47912944 90.56273159 -71.47912944 90.56273159 -57.28125 108.68359375 C-44.74369479 116.57901926 -31.75419831 116.09168341 -17.59375 112.984375 C-9.53220119 110.83545357 -1.24489823 107.37048619 5.6328125 102.64453125 C8.29296875 100.8671875 8.29296875 100.8671875 10.29296875 100.8671875 C11.76605986 102.96737764 13.1060651 105.04486479 14.41796875 107.2421875 C14.79050781 107.84546875 15.16304687 108.44875 15.546875 109.0703125 C18.29296875 113.59684066 18.29296875 113.59684066 18.29296875 115.8671875 C16.40800359 117.38732069 14.54234801 118.76161903 12.54296875 120.1171875 C11.95314209 120.51905273 11.36331543 120.92091797 10.75561523 121.33496094 C-9.10478138 134.60178023 -30.61459543 139.49200299 -54.20703125 136.1796875 C-69.57737028 133.07960502 -82.54343714 124.72240557 -91.33203125 111.8046875 C-103.48853993 91.77097925 -106.04022019 65.00416991 -100.68432617 42.41235352 C-97.34827332 29.98302303 -91.65825368 18.1996657 -82.70703125 8.8671875 C-81.60101562 7.70123047 -81.60101562 7.70123047 -80.47265625 6.51171875 C-59.61795927 -13.83183369 -23.93997106 -16.87749851 0 0 Z " fill="#030303" transform="translate(1404.70703125,1063.1328125)"/>
<path d="M0 0 C12.1185326 9.86042093 17.18232634 24.89058774 19 40 C19.08965319 42.41536254 19.1301426 44.83297964 19.125 47.25 C19.12886719 49.05210938 19.12886719 49.05210938 19.1328125 50.890625 C18.96966557 55.93858306 18.45725928 60.97014797 18 66 C-12.69 66 -43.38 66 -75 66 C-73.79790045 80.42519454 -71.2549117 95.75299084 -60 106 C-49.53380614 113.52527988 -38.67767011 115.66553401 -25.94335938 113.67919922 C-13.44649089 111.23273805 -1.92940947 106.48588693 9 100 C10.50571746 102.12114959 12.00468679 104.24653615 13.5 106.375 C13.92925781 106.97828125 14.35851562 107.5815625 14.80078125 108.203125 C18 112.7734375 18 112.7734375 18 115 C15.91051624 116.65802693 13.84163025 118.15222956 11.625 119.625 C10.63125366 120.28725586 10.63125366 120.28725586 9.61743164 120.96289062 C-9.8514215 133.51324697 -32.36769126 139.67197739 -55.48828125 135.28125 C-71.506082 131.22362529 -83.9290675 123.02505717 -93 109 C-97.82840589 100.54354611 -99.86238923 91.3992003 -102 82 C-102.17797119 81.37085693 -102.35594238 80.74171387 -102.53930664 80.09350586 C-105.03473097 68.75367353 -103.71521971 54.17020769 -101 43 C-100.81695313 42.12085938 -100.63390625 41.24171875 -100.4453125 40.3359375 C-97.72638188 28.68817299 -91.9317101 17.91424176 -84 9 C-83.46890625 8.38769531 -82.9378125 7.77539062 -82.390625 7.14453125 C-62.47417192 -14.336786 -23.30913606 -18.54135823 0 0 Z " fill="#020202" transform="translate(925,1064)"/>
<path d="M0 0 C9.91399249 8.43051186 13.40546034 20.51919768 15 33 C15.52035398 39.45450487 15.48875804 45.9310684 15.51171875 52.40234375 C15.52860869 54.21937741 15.54676454 56.0363997 15.56611633 57.85340881 C15.61315476 62.58292075 15.64326022 67.31238657 15.66955566 72.04205322 C15.69959712 76.88945625 15.7460449 81.73670093 15.79101562 86.58398438 C15.87652195 96.05590595 15.94409835 105.5278606 16 115 C16.54003662 115.176521 17.08007324 115.35304199 17.63647461 115.53491211 C20.07118164 116.33266495 22.50434758 117.13501879 24.9375 117.9375 C25.78763672 118.21529297 26.63777344 118.49308594 27.51367188 118.77929688 C28.32255859 119.04677734 29.13144531 119.31425781 29.96484375 119.58984375 C31.08814087 119.95903931 31.08814087 119.95903931 32.23413086 120.33569336 C34 121 34 121 35 122 C35 126.95 35 131.9 35 137 C13.88 137 -7.24 137 -29 137 C-29 131.72 -29 126.44 -29 121 C-26.56625 120.01 -24.1325 119.02 -21.625 118 C-20.86010254 117.68675781 -20.09520508 117.37351562 -19.30712891 117.05078125 C-14.22222222 115 -14.22222222 115 -12 115 C-12.03817853 104.62867639 -12.09771613 94.25771036 -12.18390274 83.88666821 C-12.2232727 79.07002158 -12.25551232 74.25355491 -12.27099609 69.43676758 C-12.28623207 64.78107028 -12.32079947 60.12586806 -12.36830902 55.47039223 C-12.38305163 53.70160559 -12.39103689 51.93274825 -12.39188385 50.16390038 C-12.0810118 34.83925124 -12.0810118 34.83925124 -18.41143799 21.30754089 C-24.40288293 15.92864769 -30.52237444 15.55842886 -38.234375 15.6875 C-52.21767632 16.84793994 -63.92501181 23.47964816 -73 34 C-74.51382165 37.0276433 -74.12984253 40.15901553 -74.11352539 43.47900391 C-74.11367142 44.24982803 -74.11381744 45.02065216 -74.1139679 45.81483459 C-74.11326989 48.36877229 -74.10548275 50.92263751 -74.09765625 53.4765625 C-74.09579167 55.24490316 -74.09436796 57.01324433 -74.09336853 58.78158569 C-74.0895465 63.44064759 -74.07971888 68.09967842 -74.06866455 72.75872803 C-74.05844369 77.51102274 -74.05386946 82.26332247 -74.04882812 87.015625 C-74.03809634 96.34376586 -74.02050207 105.67187549 -74 115 C-68.72 116.98 -63.44 118.96 -58 121 C-58 126.28 -58 131.56 -58 137 C-80.11 137 -102.22 137 -125 137 C-125 132.05 -125 127.1 -125 122 C-122.93124985 121.31041662 -120.86237595 120.62120282 -118.79296875 119.93359375 C-116.79351348 119.26524437 -114.79636732 118.58997129 -112.80078125 117.91015625 C-111.19783203 117.36681641 -111.19783203 117.36681641 -109.5625 116.8125 C-108.04849609 116.29623047 -108.04849609 116.29623047 -106.50390625 115.76953125 C-104 115 -104 115 -102 115 C-102.33 82.33 -102.66 49.66 -103 16 C-110.26 14.35 -117.52 12.7 -125 11 C-125 6.05 -125 1.1 -125 -4 C-109.98634778 -4.82025807 -95.03541104 -5.13539786 -80 -5 C-79.66191314 -2.93827387 -79.32972639 -0.8755797 -79 1.1875 C-78.814375 2.33605469 -78.62875 3.48460937 -78.4375 4.66796875 C-78.06510523 7.50415393 -77.91403979 10.14719564 -78 13 C-77.09121094 12.28714844 -76.18242188 11.57429688 -75.24609375 10.83984375 C-53.21589239 -6.08825294 -25.62933648 -16.28983251 0 0 Z " fill="#040404" transform="translate(1553,1061)"/>
<path d="M0 0 C8.27248873 7.49694291 12.54662141 19.41265671 13.11317444 30.32299805 C13.29137526 35.6348729 13.30690097 40.94734778 13.32421875 46.26171875 C13.34108929 48.21899017 13.35924268 50.17625091 13.37861633 52.13349915 C13.42586462 57.25105451 13.45583619 62.36856656 13.48205566 67.48626709 C13.51198898 72.72205148 13.55847506 77.95768701 13.60351562 83.19335938 C13.68926196 93.44132797 13.75673395 103.68932744 13.8125 113.9375 C14.38282959 114.114021 14.95315918 114.29054199 15.54077148 114.47241211 C18.1115273 115.27005199 20.68076993 116.07245994 23.25 116.875 C24.14783203 117.15279297 25.04566406 117.43058594 25.97070312 117.71679688 C26.82470703 117.98427734 27.67871094 118.25175781 28.55859375 118.52734375 C29.34935303 118.77347412 30.1401123 119.01960449 30.95483398 119.27319336 C32.8125 119.9375 32.8125 119.9375 33.8125 120.9375 C33.8125 125.8875 33.8125 130.8375 33.8125 135.9375 C12.3625 135.9375 -9.0875 135.9375 -31.1875 135.9375 C-31.1875 130.9875 -31.1875 126.0375 -31.1875 120.9375 C-26.8088915 118.58602506 -22.67825453 116.6839953 -17.8984375 115.30078125 C-17.0120459 115.04208252 -16.1256543 114.78338379 -15.21240234 114.5168457 C-14.54418457 114.32566162 -13.8759668 114.13447754 -13.1875 113.9375 C-13.24890251 103.67932838 -13.32614549 93.42140716 -13.42321491 83.16350746 C-13.46780648 78.39954977 -13.50708692 73.63567538 -13.53393555 68.87158203 C-13.5600809 64.26782455 -13.60056157 59.66438961 -13.65068626 55.06083298 C-13.66727939 53.31075449 -13.67884044 51.5606203 -13.68511391 49.8104744 C-13.46718499 34.39681011 -13.46718499 34.39681011 -19.375 20.5 C-25.49305284 14.92577408 -31.74464318 14.37673819 -39.75 14.58984375 C-49.59448027 15.58547869 -58.18768417 19.23701382 -66.1875 24.9375 C-66.98006699 25.48071396 -67.77263397 26.02392792 -68.58921814 26.58360291 C-72.72366747 29.96194745 -74.9008041 32.51591006 -75.97341919 37.83450317 C-76.34459412 42.66330953 -76.20096136 47.48029482 -76.06640625 52.31640625 C-76.04959668 54.09713 -76.0367966 55.8778957 -76.02781677 57.65867615 C-75.99363551 62.32045687 -75.90539539 66.97966856 -75.80548096 71.64044189 C-75.71301166 76.40642549 -75.67222379 81.1728289 -75.62695312 85.93945312 C-75.53075422 95.27325731 -75.37737979 104.60516412 -75.1875 113.9375 C-73.58068359 114.56978516 -73.58068359 114.56978516 -71.94140625 115.21484375 C-70.54421698 115.76809319 -69.14708449 116.32148602 -67.75 116.875 C-67.04294922 117.15279297 -66.33589844 117.43058594 -65.60742188 117.71679688 C-60.30078125 119.82421875 -60.30078125 119.82421875 -59.1875 120.9375 C-59.1875 125.8875 -59.1875 130.8375 -59.1875 135.9375 C-81.2975 135.9375 -103.4075 135.9375 -126.1875 135.9375 C-126.1875 130.9875 -126.1875 126.0375 -126.1875 120.9375 C-119.1875 117.9375 -119.1875 117.9375 -103.1875 113.9375 C-103.1875 81.2675 -103.1875 48.5975 -103.1875 14.9375 C-106.4875 14.2775 -109.7875 13.6175 -113.1875 12.9375 C-117.5289312 11.96977812 -121.85641633 10.95115788 -126.1875 9.9375 C-126.1875 4.9875 -126.1875 0.0375 -126.1875 -5.0625 C-116.59801397 -6.14504642 -107.13335139 -6.17846818 -97.5 -6.125 C-95.91211079 -6.11997247 -94.32422004 -6.11541179 -92.73632812 -6.11132812 C-88.88667975 -6.10042755 -85.03710747 -6.08323283 -81.1875 -6.0625 C-80.98833984 -4.47308594 -80.98833984 -4.47308594 -80.78515625 -2.8515625 C-80.60696125 -1.46351721 -80.4285654 -0.07549769 -80.25 1.3125 C-80.11948242 2.36050781 -80.11948242 2.36050781 -79.98632812 3.4296875 C-79.52431872 7.30533575 -79.52431872 7.30533575 -78.1875 10.9375 C-77.35089844 10.29683594 -76.51429688 9.65617187 -75.65234375 8.99609375 C-52.66391 -8.23437693 -25.75692482 -16.66624547 0 0 Z " fill="#030303" transform="translate(695.1875,1062.0625)"/>
<path d="M0 0 C5.61 0 11.22 0 17 0 C17 12.54 17 25.08 17 38 C29.21 38 41.42 38 54 38 C54 43.94 54 49.88 54 56 C41.79 56 29.58 56 17 56 C17.08569174 70.00467736 17.17954021 84.00923607 17.28752708 98.01375961 C17.3373547 104.51745239 17.38368557 111.02112999 17.421875 117.52490234 C17.45889919 123.80789451 17.50530479 130.09075529 17.55806351 136.37363434 C17.57651673 138.76402723 17.5916577 141.15444818 17.60334396 143.54488373 C17.62036249 146.90733638 17.64943379 150.26949404 17.68115234 153.63183594 C17.68331253 154.60792313 17.68547272 155.58401031 17.68769836 156.5896759 C17.80290847 166.2250761 18.26244797 176.87343313 24 185 C28.57933038 189.25223535 31.46202156 190.3030013 37.5546875 190.21484375 C44.31710225 189.62070188 48.48406666 187.03204001 53 182 C53.99 181.34 54.98 180.68 56 180 C57.06623349 181.18671185 58.10232975 182.40054728 59.125 183.625 C59.70507812 184.29789063 60.28515625 184.97078125 60.8828125 185.6640625 C62 188 62 188 61.4296875 190.95703125 C57.25253512 199.84774628 50.04122955 205.60436264 41 209 C40.22785156 209.31710937 39.45570312 209.63421875 38.66015625 209.9609375 C24.1329178 214.96399908 6.83672301 213.19298651 -7 207 C-17.03391844 201.49246458 -22.69950333 195.17426599 -26.17125702 184.32904816 C-27.5168155 178.92395989 -27.52493047 173.70730816 -27.45410156 168.16308594 C-27.45468567 166.9421373 -27.45526978 165.72118866 -27.45587158 164.46324158 C-27.45358294 161.15580144 -27.43370004 157.84939392 -27.40557575 154.54213619 C-27.3803551 151.07086749 -27.37820399 147.59958105 -27.37347412 144.12823486 C-27.3611044 137.57300913 -27.32836546 131.01805427 -27.28807616 124.46294713 C-27.24316993 116.99247457 -27.22132433 109.52198822 -27.20129442 102.05141401 C-27.15962631 86.70075968 -27.08635059 71.3504779 -27 56 C-34.92 56 -42.84 56 -51 56 C-51 51.05 -51 46.1 -51 41 C-48.73125 40.113125 -46.4625 39.22625 -44.125 38.3125 C-33.53696878 34.08300151 -24.64978695 29.5827902 -16 22 C-14.948125 21.10861328 -14.948125 21.10861328 -13.875 20.19921875 C-7.52840445 14.41042945 -4.03910504 7.50119508 0 0 Z " fill="#0197B2" transform="translate(1070,712)"/>
<path d="M0 0 C6.14607008 5.54645349 10.24703302 12.58161614 10.80300903 20.91928101 C10.80874055 22.26958757 10.8036405 23.61996962 10.78955078 24.97021484 C10.78984283 25.71236237 10.79013489 26.45450989 10.79043579 27.21914673 C10.78905072 29.65403235 10.77352871 32.08860582 10.7578125 34.5234375 C10.75407944 36.21879916 10.75123385 37.91416299 10.74923706 39.60952759 C10.7416237 44.05814638 10.72199505 48.50663328 10.6998291 52.9552002 C10.67932107 57.50006324 10.67022476 62.04494771 10.66015625 66.58984375 C10.6387469 75.49745358 10.60463882 84.4049658 10.5625 93.3125 C11.65377197 93.46195068 12.74504395 93.61140137 13.86938477 93.76538086 C18.92181375 94.51387649 23.65094632 95.9178613 28.5625 97.3125 C28.5625 101.2725 28.5625 105.2325 28.5625 109.3125 C17.22538931 110.53813359 5.95314937 110.40370627 -5.4375 110.3125 C-6.7575 106.0225 -8.0775 101.7325 -9.4375 97.3125 C-12.21198095 97.3125 -12.73287548 98.4416214 -14.6875 100.375 C-25.17626173 109.8593131 -37.48518447 113.0908743 -51.32275391 112.49609375 C-58.81572916 111.84558378 -65.29450222 108.70040244 -70.4375 103.3125 C-77.58303414 93.85165312 -78.32704429 83.84236255 -77.4375 72.3125 C-75.83481371 64.57294532 -71.69575029 59.04048673 -65.4375 54.3125 C-52.98643828 46.75924929 -38.76745169 45.85316825 -24.5625 46.125 C-23.1810045 46.14010452 -21.79949266 46.15378253 -20.41796875 46.16601562 C-17.09071134 46.20091693 -13.76433239 46.24994144 -10.4375 46.3125 C-10.48984536 42.64471462 -10.58502842 38.9792003 -10.6875 35.3125 C-10.70167969 34.28253906 -10.71585938 33.25257812 -10.73046875 32.19140625 C-10.9297445 25.93414757 -11.28825146 20.27696614 -15.4375 15.3125 C-20.83084614 10.98385471 -26.64499937 10.73445468 -33.3125 10.9375 C-34.1900293 10.95039062 -35.06755859 10.96328125 -35.97167969 10.9765625 C-41.9905582 11.11960306 -47.60391223 11.75687659 -53.4375 13.3125 C-53.52837891 14.41658203 -53.52837891 14.41658203 -53.62109375 15.54296875 C-53.70488281 16.51878906 -53.78867188 17.49460937 -53.875 18.5 C-53.95621094 19.46292969 -54.03742188 20.42585938 -54.12109375 21.41796875 C-54.41099361 24.07001558 -54.91429265 26.69646323 -55.4375 29.3125 C-60.3875 29.3125 -65.3375 29.3125 -70.4375 29.3125 C-70.4375 20.4025 -70.4375 11.4925 -70.4375 2.3125 C-59.12980769 -2.21057692 -59.12980769 -2.21057692 -54.25 -3.375 C-53.30769531 -3.60574219 -52.36539062 -3.83648438 -51.39453125 -4.07421875 C-34.32069626 -7.61529153 -15.80473553 -7.75868835 0 0 Z " fill="#0398B3" transform="translate(1691.4375,1352.6875)"/>
<path d="M0 0 C0.21707369 12.34908092 -0.43713748 24.6672801 -1 37 C-6.94 37 -12.88 37 -19 37 C-19.495 34.504375 -19.99 32.00875 -20.5 29.4375 C-20.65662109 28.66591553 -20.81324219 27.89433105 -20.97460938 27.09936523 C-21.83196509 22.64984782 -22.1428796 18.53047398 -22 14 C-29.86007855 13.16876763 -37.65985552 12.75991275 -45.5625 12.6875 C-47.15094727 12.64399414 -47.15094727 12.64399414 -48.77148438 12.59960938 C-59.99038353 12.50974758 -67.72583133 15.74848815 -75.8046875 23.5234375 C-79.21580833 27.37157025 -81.2700151 31.17573317 -83 36 C-83.31710937 36.88429688 -83.63421875 37.76859375 -83.9609375 38.6796875 C-86.11902178 46.14388727 -86.2765299 53.45923563 -86.3125 61.1875 C-86.31805908 62.19699707 -86.32361816 63.20649414 -86.3293457 64.24658203 C-86.19056931 78.74337769 -82.95026823 93.98227005 -73 105 C-64.16193297 112.9934736 -54.28351914 115.67838206 -42.515625 115.34375 C-28.52852269 113.97612222 -14.81424433 109.14897108 -4 100 C5 113.36893204 5 113.36893204 5 117 C2.96342346 118.60300253 1.00791061 119.95920787 -1.1875 121.3125 C-1.82026855 121.70912842 -2.45303711 122.10575684 -3.10498047 122.5144043 C-23.81149128 135.22852153 -46.28250627 140.58803364 -70.1796875 135.09765625 C-84.80293254 130.89608994 -96.78349074 121.818595 -105 109 C-112.31733083 95.24262052 -115.39541139 81.27846201 -115.3125 65.75 C-115.30758545 64.65534424 -115.3026709 63.56068848 -115.29760742 62.43286133 C-114.99869739 41.6885048 -108.42118904 23.39770029 -94.1484375 8.05859375 C-67.75158613 -17.23438929 -31.0665829 -12.29718907 0 0 Z " fill="#020202" transform="translate(1706,1063)"/>
<path d="M0 0 C24.09 0 48.18 0 73 0 C73 5.28 73 10.56 73 16 C69.89658898 16.67036072 66.79236413 17.33643337 63.6875 18 C62.80642578 18.19078125 61.92535156 18.3815625 61.01757812 18.578125 C59.74624023 18.84882812 59.74624023 18.84882812 58.44921875 19.125 C57.27879028 19.37636719 57.27879028 19.37636719 56.0847168 19.6328125 C54 20 54 20 51 20 C51.33 67.85 51.66 115.7 52 165 C62.395 167.475 62.395 167.475 73 170 C73 175.28 73 180.56 73 186 C48.91 186 24.82 186 0 186 C0 180.72 0 175.44 0 170 C3.29096757 169.16381949 6.58270753 168.3309333 9.875 167.5 C10.81214844 167.26152344 11.74929688 167.02304688 12.71484375 166.77734375 C14.05869141 166.43896484 14.05869141 166.43896484 15.4296875 166.09375 C16.25710449 165.88427734 17.08452148 165.67480469 17.93701172 165.45898438 C20 165 20 165 22 165 C22 117.15 22 69.3 22 20 C19.36 19.67 16.72 19.34 14 19 C9.3133673 18.08077225 4.66395898 17.03145247 0 16 C0 10.72 0 5.44 0 0 Z " fill="#050505" transform="translate(490,1011)"/>
<path d="M0 0 C0 12.87 0 25.74 0 39 C12.87 39 25.74 39 39 39 C39 45.6 39 52.2 39 59 C26.13 59 13.26 59 0 59 C0.04033157 71.02228346 0.09740858 83.04416806 0.18390274 95.06620979 C0.22339817 100.64864395 0.25557664 106.23091987 0.27099609 111.81347656 C0.28614888 117.2017972 0.32057041 122.58968288 0.36830902 127.97780991 C0.38313695 130.03263441 0.39104182 132.087521 0.39188385 134.14239883 C0.39425096 137.02264941 0.42131046 139.90169548 0.45410156 142.78173828 C0.4490712 143.62978531 0.44404083 144.47783234 0.43885803 145.35157776 C0.53276547 150.6890072 1.43482908 153.78007086 5 158 C9.54821966 161.03214644 13.6652424 160.65727277 19 160 C22.81491334 158.86423223 26.42711681 157.5533822 30.12890625 156.09375 C33 155 33 155 35 155 C36.06092734 156.90607285 37.09820101 158.82532746 38.125 160.75 C38.70507812 161.81734375 39.28515625 162.8846875 39.8828125 163.984375 C41 167 41 167 40.6328125 169.13671875 C38.1553729 171.9638448 35.07858926 173.4472293 31.75 175.0625 C31.03416748 175.41248047 30.31833496 175.76246094 29.58081055 176.12304688 C18.56482743 181.29329284 4.62361825 184.90544844 -7.26953125 180.8984375 C-15.97643683 176.88316908 -20.8304462 172.47065178 -24.3125 163.5625 C-26.94555328 156.10773733 -27.14770265 148.55381734 -27.11352539 140.73828125 C-27.11367142 139.84953812 -27.11381744 138.96079498 -27.1139679 138.04512024 C-27.11327631 135.1342212 -27.10551951 132.22338773 -27.09765625 129.3125 C-27.09578939 127.28369176 -27.09436675 125.25488307 -27.09336853 123.22607422 C-27.08956447 117.90621682 -27.07975235 112.58638706 -27.06866455 107.26654053 C-27.0584049 101.83004124 -27.05386118 96.39353745 -27.04882812 90.95703125 C-27.03812807 80.30467345 -27.0205485 69.65234336 -27 59 C-35.91 59 -44.82 59 -54 59 C-54.020625 56.215625 -54.04125 53.43125 -54.0625 50.5625 C-54.071604 49.68408447 -54.08070801 48.80566895 -54.09008789 47.90063477 C-54.09723091 45.93354026 -54.05031893 43.96646379 -54 42 C-52.22808941 40.22808941 -49.62367341 40.63939662 -47.21484375 40.46484375 C-46.16159912 40.38613037 -45.10835449 40.30741699 -44.02319336 40.22631836 C-42.67491455 40.1310083 -41.32663574 40.03569824 -39.9375 39.9375 C-35.668125 39.628125 -31.39875 39.31875 -27 39 C-27 27.78 -27 16.56 -27 5 C-23.2875 4.175 -19.575 3.35 -15.75 2.5 C-14.5856543 2.23896484 -13.42130859 1.97792969 -12.22167969 1.70898438 C-11.29774414 1.50595703 -10.37380859 1.30292969 -9.421875 1.09375 C-8.47924805 0.88427734 -7.53662109 0.67480469 -6.56542969 0.45898438 C-4 0 -4 0 0 0 Z " fill="#020202" transform="translate(780,1018)"/>
<path d="M0 0 C0 4.29 0 8.58 0 13 C-1.66366999 13.47533428 -3.32750402 13.95010235 -4.9921875 14.421875 C-6.89632857 14.97014908 -8.79223644 15.546784 -10.6875 16.125 C-14 17 -14 17 -18 17 C-18 55.61 -18 94.22 -18 134 C-3.48 134 11.04 134 26 134 C26.94547833 126.89532301 26.94547833 126.89532301 27.88452148 119.78979492 C28.00384033 118.90396729 28.12315918 118.01813965 28.24609375 117.10546875 C28.36654053 116.19949951 28.4869873 115.29353027 28.61108398 114.36010742 C29 112 29 112 30 109 C34.95 109 39.9 109 45 109 C45 122.86 45 136.72 45 151 C10.68 151 -23.64 151 -59 151 C-59 146.71 -59 142.42 -59 138 C-57.33633001 137.52466572 -55.67249598 137.04989765 -54.0078125 136.578125 C-52.10367143 136.02985092 -50.20776356 135.453216 -48.3125 134.875 C-45 134 -45 134 -41 134 C-41 95.39 -41 56.78 -41 17 C-43.31 16.67 -45.62 16.34 -48 16 C-49.79472979 15.68357381 -51.58692914 15.35211242 -53.375 15 C-54.22835938 14.835 -55.08171875 14.67 -55.9609375 14.5 C-58 14 -58 14 -59 13 C-59.07244053 10.98035801 -59.08377188 8.95832876 -59.0625 6.9375 C-59.05347656 5.83277344 -59.04445313 4.72804688 -59.03515625 3.58984375 C-59.02355469 2.73519531 -59.01195312 1.88054687 -59 1 C-17.96658688 -0.19388403 -17.96658688 -0.19388403 0 0 Z " fill="#0297B2" transform="translate(1566,1312)"/>
<path d="M0 0 C8.35978832 4.40788838 12.26143237 9.71951065 15.4140625 18.546875 C19.97813359 35.01165482 19.28422416 54.58145878 10.828125 69.6875 C5.92757275 76.52129763 -0.47602287 80.6522827 -8.5625 82.8125 C-11.50590013 83.06444624 -14.4228672 83.04959238 -17.375 83 C-18.17164063 82.99282959 -18.96828125 82.98565918 -19.7890625 82.97827148 C-33.61274869 82.78737565 -33.61274869 82.78737565 -37.5625 80.8125 C-37.72501903 71.93712893 -37.8492329 63.06227349 -37.9251852 54.18573666 C-37.96164774 50.06347364 -38.01106523 45.9422319 -38.09057617 41.82055664 C-38.16689295 37.83933616 -38.20854276 33.85909491 -38.2266407 29.87719917 C-38.23952954 28.36168571 -38.26470032 26.84622314 -38.3026104 25.33112907 C-38.58735571 13.47464351 -38.58735571 13.47464351 -36.03939819 9.34228516 C-34.30163012 7.57404084 -32.62594787 6.17662969 -30.5625 4.8125 C-29.79421875 4.23757813 -29.0259375 3.66265625 -28.234375 3.0703125 C-27.60015625 2.69648437 -26.9659375 2.32265625 -26.3125 1.9375 C-25.34570312 1.35355469 -25.34570312 1.35355469 -24.359375 0.7578125 C-17.75713236 -2.71554124 -7.0160851 -2.41604487 0 0 Z " fill="#FDFEFE" transform="translate(1793.5625,1365.1875)"/>
<path d="M0 0 C0.88207123 -0.01283524 1.76414246 -0.02567047 2.67294312 -0.03889465 C3.63116974 -0.04628159 4.58939636 -0.05366852 5.57666016 -0.0612793 C6.56638824 -0.06935104 7.55611633 -0.07742279 8.57583618 -0.08573914 C10.67912032 -0.09959407 12.78242708 -0.11030989 14.88574219 -0.11816406 C18.06832275 -0.13524367 21.24982794 -0.1791007 24.43212891 -0.22338867 C47.8352526 -0.40275034 47.8352526 -0.40275034 56.80322266 6.55200195 C61.37263161 12.74281408 62.72549142 17.56742514 61.74072266 25.17700195 C59.98436868 32.28605378 57.05774266 37.3459575 50.74072266 41.17700195 C40.9859819 46.05437233 31.44118618 46.40964498 20.68212891 46.47216797 C19.31516118 46.48363473 17.94823634 46.50400208 16.58154297 46.53369141 C5.7321677 46.76835044 -5.29858949 46.08170748 -14.38427734 39.48950195 C-18.98570764 34.95657931 -19.97151125 29.44315995 -20.75927734 23.23950195 C-20.44138894 16.84358721 -17.33877622 11.36047578 -12.99365234 6.7980957 C-5.53149909 0.07012204 -5.53149909 0.07012204 0 0 Z " fill="#FCFCFC" transform="translate(1209.25927734375,1197.822998046875)"/>
<path d="M0 0 C5.59092538 4.30161345 8.58992068 9.90519439 10.05078125 16.74609375 C10.32298075 20.47166018 10.32798387 24.19913113 10.36328125 27.93359375 C10.39228516 28.93712891 10.42128906 29.94066406 10.45117188 30.97460938 C10.519853 39.09483156 8.50751435 44.58854543 4.42578125 51.49609375 C-3.48278004 58.98841497 -13.31395926 60.39358414 -23.75390625 60.1484375 C-30.82918334 59.6963791 -36.83163119 56.75831553 -41.9140625 51.84765625 C-47.92639452 44.40941664 -49.49336606 36.69727497 -49.38671875 27.37109375 C-49.37842041 26.44151855 -49.37012207 25.51194336 -49.36157227 24.55419922 C-49.14650359 15.8488927 -47.67080205 9.50551451 -41.82421875 2.87109375 C-31.12621756 -6.63574344 -12.07239875 -7.76601202 0 0 Z " fill="#FCFCFC" transform="translate(1243.94921875,1076.25390625)"/>
<path d="M0 0 C0.0997145 5.08620644 0.17186281 10.17182992 0.21972656 15.25878906 C0.23970285 16.98512702 0.26689372 18.71139853 0.30175781 20.4375 C0.55155842 33.13324847 0.23748924 43.44512944 -8.9453125 53.1796875 C-17.8556678 61.07365246 -27.0149181 63.50301032 -38.74609375 63.31640625 C-44.22650828 62.78349679 -46.65329431 60.45893116 -50.25 56.5625 C-54.2109538 50.76253194 -54.33429929 46.15447325 -53.66015625 39.2890625 C-51.81759011 30.1089401 -44.66355841 23.79788007 -37.17089844 18.7734375 C-28.73960142 13.2888848 -20.04006347 8.34424096 -11.0625 3.8125 C-9.9180542 3.23266357 -9.9180542 3.23266357 -8.75048828 2.64111328 C-3.38180757 0 -3.38180757 0 0 0 Z " fill="#FDFEFE" transform="translate(953,830)"/>
<path d="M0 0 C7.31541709 4.28834795 12.04958322 10.31909811 14.90625 18.2734375 C16.22535901 23.75402136 17.11622114 30.21565569 14.28515625 35.2890625 C11.02503825 38.52700283 7.08986886 38.12292173 2.69238281 38.11352539 C1.51146057 38.11344986 0.33053833 38.11337433 -0.88616943 38.11329651 C-2.15607727 38.10813522 -3.42598511 38.10297394 -4.734375 38.09765625 C-6.69023529 38.09553383 -6.69023529 38.09553383 -8.68560791 38.09336853 C-12.14453055 38.08955867 -15.60341091 38.07974151 -19.06231689 38.06866455 C-22.59492419 38.05841746 -26.12753836 38.05386385 -29.66015625 38.04882812 C-36.58595482 38.03811782 -43.51172538 38.02105984 -50.4375 38 C-50.30487025 36.57495348 -50.16482693 35.15059588 -50.02172852 33.7265625 C-49.90596214 32.53667725 -49.90596214 32.53667725 -49.78785706 31.32275391 C-48.20496695 20.82870469 -40.25775142 10.58295308 -32.140625 4.19140625 C-22.64898834 -2.4495543 -10.94160577 -4.9765037 0 0 Z " fill="#FDFEFE" transform="translate(1233.4375,768)"/>
<path d="M0 0 C0.63421875 0.41121094 1.2684375 0.82242187 1.921875 1.24609375 C2.55609375 1.64699219 3.1903125 2.04789063 3.84375 2.4609375 C10.33651394 7.24726989 13.01822241 14.6314834 14.921875 22.24609375 C14.921875 25.87609375 14.921875 29.50609375 14.921875 33.24609375 C-6.198125 33.24609375 -27.318125 33.24609375 -49.078125 33.24609375 C-47.12680635 21.53818187 -44.19416326 10.28672098 -34.19921875 2.84765625 C-24.2244954 -3.70121335 -10.87379956 -5.90700765 0 0 Z " fill="#FCFCFC" transform="translate(900.078125,1076.75390625)"/>
<path d="M0 0 C0.63421875 0.41121094 1.2684375 0.82242187 1.921875 1.24609375 C2.55609375 1.64699219 3.1903125 2.04789063 3.84375 2.4609375 C10.33651394 7.24726989 13.01822241 14.6314834 14.921875 22.24609375 C14.921875 25.87609375 14.921875 29.50609375 14.921875 33.24609375 C-5.868125 33.24609375 -26.658125 33.24609375 -48.078125 33.24609375 C-48.078125 23.29246619 -45.3505204 15.12452587 -39.078125 7.24609375 C-28.34825013 -2.3181846 -13.57020288 -7.37178314 0 0 Z " fill="#FCFCFC" transform="translate(1790.078125,1076.75390625)"/>
<path d="M0 0 C4.68423859 3.82066387 7.40130398 7.94007883 9.59765625 13.5234375 C10.01015625 14.4309375 10.42265625 15.3384375 10.84765625 16.2734375 C11.99207357 21.23257924 11.59765625 26.43396034 11.59765625 31.5234375 C-9.19234375 31.5234375 -29.98234375 31.5234375 -51.40234375 31.5234375 C-51.40234375 19.64598813 -47.83955482 12.07264494 -39.59765625 3.5859375 C-29.10241105 -6.27436404 -12.44697652 -7.65033679 0 0 Z " fill="#FDFDFD" transform="translate(1383.40234375,1078.4765625)"/>
<path d="M0 0 C0.66022156 0.00141495 1.32044312 0.0028299 2.00067139 0.00428772 C4.09945294 0.0098638 6.19812595 0.02241178 8.296875 0.03515625 C9.72395679 0.04017435 11.15104025 0.04473671 12.578125 0.04882812 C16.06774332 0.05982537 19.55729856 0.07707345 23.046875 0.09765625 C24.07915235 17.09199998 24.07915235 17.09199998 20.734375 21.22265625 C19.08203125 22.68359375 19.08203125 22.68359375 17.046875 24.09765625 C16.19996094 24.70867187 15.35304688 25.3196875 14.48046875 25.94921875 C6.43077255 31.39032077 -1.02720833 35.4235672 -10.953125 34.09765625 C-16.16752924 32.32672651 -18.27933169 29.85106657 -20.953125 25.09765625 C-22.88275272 19.3087731 -22.91893094 13.22242932 -20.390625 7.66015625 C-14.47110053 1.43706642 -8.36453827 -0.03544296 0 0 Z " fill="#FBFDFD" transform="translate(1657.953125,1413.90234375)"/>
<path d="M0 0 C4.07166495 2.90833211 7.01178079 6.03534238 8.625 10.875 C9.09826956 16.68612953 9.48497977 22.02273588 7 27.375 C2.09541774 32.53771817 -1.67480355 36.00651078 -9 36.3125 C-14.52003898 36.26605736 -17.57419029 35.18450648 -21.8515625 31.7734375 C-26.25130107 26.29068636 -25.96701706 19.22898657 -25.89453125 12.52734375 C-25.22324581 7.80815662 -23.66221778 5.55044798 -20.296875 2.29296875 C-14.14298086 -2.24740436 -7.18211286 -2.39403762 0 0 Z " fill="#020202" transform="translate(1130.375,994.125)"/>
</svg>
